<svg xmlns="http://www.w3.org/2000/svg" viewBox="0 0 48 60" x="0px" y="0px"><title>Beer</title><g data-name="Layer 2"><path d="M36,17H34.74a4.46,4.46,0,0,0-1-4.61A3.85,3.85,0,0,0,34,11a4,4,0,0,0-4-4,3.62,3.62,0,0,0-1,.13,7,7,0,0,0-9.4-.59,4.46,4.46,0,0,0-6.4,2.64A5.46,5.46,0,0,0,10,17.65V40a3,3,0,0,0,3,3H31a3,3,0,0,0,3-3V33h2a5,5,0,0,0,5-5V22A5,5,0,0,0,36,17ZM14.15,11a1,1,0,0,0,.89-.86,2.46,2.46,0,0,1,4-1.6,1,1,0,0,0,1.36-.07,5,5,0,0,1,7.5.41,1,1,0,0,0,1.23.28A1.92,1.92,0,0,1,30,9a2,2,0,0,1,2,2,2,2,0,0,1-.33,1.09,1,1,0,0,0,.26,1.37,2.46,2.46,0,0,1,1.07,2,2.48,2.48,0,0,1-.72,1.75,2.27,2.27,0,0,1-2,.73l-.14,0a1.25,1.25,0,0,0-.47,0A1,1,0,0,0,29,19v1a.93.93,0,0,1-.12.46.42.42,0,0,1-.09.14.57.57,0,0,1-.15.16,1,1,0,0,1-.82.22.55.55,0,0,1-.17-.05A1.13,1.13,0,0,1,27,19.88V17.65a1,1,0,0,0-.11-.46,3,3,0,0,0-5.78,0,1,1,0,0,0-.11.46V22a.93.93,0,0,1-.12.46.42.42,0,0,1-.09.14.57.57,0,0,1-.15.16,1.08,1.08,0,0,1-.25.16.6.6,0,0,1-.19.06,1,1,0,0,1-.38,0,.55.55,0,0,1-.17-.05A1.13,1.13,0,0,1,19,21.88V17.31a1,1,0,0,0-.67-.94,1,1,0,0,0-1.11.32A3.49,3.49,0,0,1,14.5,18l-.37,0h-.07a2.91,2.91,0,0,1-.72-.17l-.28-.11a.48.48,0,0,1-.16-.08,2,2,0,0,1-.25-.14A3.64,3.64,0,0,1,12,17a2.16,2.16,0,0,1-.25-.27l0,0A3.48,3.48,0,0,1,14.15,11ZM32,40a1,1,0,0,1-1,1H13a1,1,0,0,1-1-1V19.41l.12.05a3.88,3.88,0,0,0,.56.23l.32.11V36a3,3,0,0,0,3,3H28a3,3,0,0,0,3-3V20a2.76,2.76,0,0,0,.4-.06l.33-.08.06,0,.11,0,.1,0V40Zm7-12a3,3,0,0,1-3,3H34V19h2a3,3,0,0,1,3,3Z"/></g><text x="0" y="63" fill="#000000" font-size="5px" font-weight="bold" font-family="'Helvetica Neue', Helvetica, Arial-Unicode, Arial, Sans-serif">Created by tezar tantular</text><text x="0" y="68" fill="#000000" font-size="5px" font-weight="bold" font-family="'Helvetica Neue', Helvetica, Arial-Unicode, Arial, Sans-serif">from the Noun Project</text></svg>